<svg xmlns="http://www.w3.org/2000/svg" xml:space="preserve" width="655.359" height="655.359" style="shape-rendering:geometricPrecision;text-rendering:geometricPrecision;image-rendering:optimizeQuality;fill-rule:evenodd;clip-rule:evenodd" viewBox="0.9 1 5 4"><defs><style>.fil0{fill:#212121;fill-rule:nonzero}</style></defs><g id="Layer_x0020_1"><path class="fil0" d="M1.23 2.053h4.367a.375.375 0 0 1 .376.376v1.537a.375.375 0 0 1-.376.376h-.085a.49.49 0 0 0-.024-.213h.11a.162.162 0 0 0 .114-.048c.03-.03.048-.07.048-.115V2.429a.162.162 0 0 0-.163-.163H1.23a.162.162 0 0 0-.163.163v1.537a.162.162 0 0 0 .163.163h.109a.483.483 0 0 0-.025.213H1.23a.375.375 0 0 1-.377-.376V2.429a.375.375 0 0 1 .377-.376zm1.023 2.076h2.321a.483.483 0 0 0-.024.213H2.277a.49.49 0 0 0-.024-.213z"/><path class="fil0" d="M.96 2.403h4.907v.214H.96zM.96 3.158h4.907v.214H.96z"/><path class="fil0" d="M1.72 2.51v.755h-.213V2.51zM2.36 2.51v.755h-.213V2.51zM3.002 2.51v.755h-.214V2.51zM3.642 2.51v.755H3.43V2.51zM4.283 2.51v.755H4.07V2.51zM4.924 2.51v.755H4.71V2.51zM5.03 3.805a.483.483 0 0 1 .343.827.483.483 0 0 1-.826-.342.483.483 0 0 1 .484-.485zm.192.293a.27.27 0 0 0-.462.192.27.27 0 0 0 .462.191.27.27 0 0 0 0-.383zM1.796 3.805a.483.483 0 0 1 .342.827.483.483 0 0 1-.826-.342.483.483 0 0 1 .484-.485zm.191.293a.27.27 0 0 0-.462.192.27.27 0 0 0 .462.191.27.27 0 0 0 0-.383zM5.478 3.59a.107.107 0 0 0 0 .213h.389a.107.107 0 0 0 0-.213h-.39z"/></g><path style="fill:none" d="M0 0h6.827v6.827H0z"/></svg>